With: Charlie Sheen, Kiefer Sutherland and Chris O'Donnell

De jonge D'Artagnan komt naar Parijs om Musketier te worden. Hij komt er al gauw achter dat Kardinaal Richelieu, de adviseur van de koning, de Musketiers vogelvrij heeft verklaard. Nadat D'Artagnan zijn waarde heeft bewezen in het hanteren van het zwaard in afzonderlijke duels met de Musketiers Aramis, Athos en Porthos wordt hij door hen uitgenodigd het geheime document, met de opdracht de koning af te zetten, te onderscheppen. Onderweg wordt D'Artagnan van zijn vrienden gescheiden en vervolgens ontvoerd door Milady de Winter, die een spion blijkt te zijn in dienst van Richelieu. Haar opdracht is het geheime document af te leveren. In de spannende finale moeten de Musketiers tot het uiterste gaan om de koning te redden.

The three best of the disbanded Musketeers - Athos, Porthos, and Aramis - join a young hotheaded would-be-Musketeer, D'Artagnan, to stop the Cardinal Richelieu's evil plot: to form an alliance with enemy England by way of the mysterious Milady. Rochefort, the Cardinal's right-hand man, announces the official disbanding of the King's Musketeers. Three, however, refuse to throw down their swords - Athos the fighter and drinker, Porthos the pirate and lover, and Aramis the priest and poet. Arriving in Paris to join the Musketeers, D'Artagnan uncovers the Cardinal's plans, and the four set out on a mission to protect King and Country.

General:

Complete name                    : The Three Musketeers\The Three Musketeers.avi
Format                           : AVI
Format/Info                      : Audio Video Interleave
File size                        : 1.57 GiB
Duration                         : 1h 41mn
Overall bit rate                 : 2 213 Kbps

Video:

Format                           : MPEG-4 Visual
Format profile                   : Simple@L3
Format settings, BVOP            : No
Format settings, QPel            : No
Format settings, GMC             : No warppoints
Format settings, Matrix          : Default (H.263)
Codec ID                         : XVID
Codec ID/Hint                    : XviD
Duration                         : 1h 41mn
Bit rate                         : 1 818 Kbps
Width                            : 720 pixels
Height                           : 304 pixels
Display aspect ratio             : 2.35:1
Frame rate                       : 25.000 fps
Color space                      : YUV
Chroma subsampling               : 4:2:0
Bit depth                        : 8 bits
Scan type                        : Progressive
Bits/(Pixel*Frame)               : 0.332
Stream size                      : 1.29 GiB (82%)
Writing library                  : XviD 1.1.2 (UTC 2006-11-01)

Audio:

Format                           : AC-3
Format/Info                      : Audio Coding 3
Mode extension                   : CM (complete main)
Codec ID                         : 2000
Duration                         : 1h 41mn
Bit rate mode                    : Constant
Bit rate                         : 384 Kbps
Channel(s)                       : 6 channels
Channel positions                : Front: L C R, Side: L R, LFE
Sampling rate                    : 48.0 KHz
Bit depth                        : 16 bits
Stream size                      : 278 MiB (17%)
Alignment                        : Aligned on interleaves
Interleave, duration             : 32 ms (0.80 video frame)
Interleave, preload duration     : 640 ms




